
<svg width="500px" height="500px" viewBox="3992 -43 500 500" version="1.1" xmlns="http://www.w3.org/2000/svg" xmlns:xlink="http://www.w3.org/1999/xlink">
    <!-- Generator: Sketch 41.2 (35397) - http://www.bohemiancoding.com/sketch -->
    <desc>Created with Sketch.</desc>
    <defs></defs>
    <g id="gray" stroke="none" stroke-width="1" fill="none" fill-rule="evenodd" transform="translate(3992.000000, -43.000000)">
        <g id="Group-2" transform="translate(85.000000, 20.000000)">
            <path d="M7.01237217,194.814265 L0.064028685,190.099702 L120.171109,70.2712316 L23.8869206,70.2712316 L23.8869206,62.8065072 L73.5179455,62.8065072 L73.5179455,1.12431075 L82.9478403,1.12431075 L82.9478403,62.8065072 L140.023519,62.8065072 L66.0732918,135.88223 L119.674799,190.099702 L112.230145,194.814265 L87.4146325,169.27705 C82.4515052,179.230066 73.352575,184.468416 60.1175688,184.992259 C46.5516875,184.206495 37.4527573,178.968144 32.8205051,169.27705 L7.01237217,194.814265 Z M82.3214501,163.926866 L60.4837991,141.925573 L38.6461481,163.533985 C40.6313991,173.22508 47.9105433,178.594389 60.4837991,179.642075 C72.7261798,178.594389 80.005324,173.356038 82.3214501,163.926866 Z M56.0640287,345.104306 L56.0640287,205.124311 L65.0263576,205.124311 L65.0263576,345.104306 L56.0640287,345.104306 Z M176.911672,25.8140067 L176.911672,16.7646893 L324.511678,16.7646893 L324.511678,25.8140067 L176.911672,25.8140067 Z M176.911672,137.975837 L176.911672,62.2473391 L324.508965,62.2473391 L324.508965,137.975837 L176.911672,137.975837 Z M314.726857,129.045924 L314.726857,108.08961 L291.978887,108.08961 L291.978887,129.045924 L314.726857,129.045924 Z M187.928746,70.9792003 L187.928746,128.609064 L287.914009,128.609064 L287.914009,103.366231 L315.423182,103.366231 L315.423182,70.9792003 L187.928746,70.9792003 Z M176.911672,345.438871 L176.911672,178.740919 L250.710318,151.748916 L324.508965,178.740919 L324.508965,345.438871 L176.911672,345.438871 Z" id="ç¦" fill="#535353"></path>
            <polygon id="Rectangle-3" fill="#FFFFFF" points="253 205.496043 314.557049 187 314.557049 334.329238 253 315.494825"></polygon>
            <ellipse id="Oval" fill="#535353" cx="265.708644" cy="260.467198" rx="6.70864387" ry="8.46719756"></ellipse>
            <rect id="Rectangle" fill="#FFFFFF" x="64.0315457" y="0.032828099" width="53.669151" height="62.5050294"></rect>
            <rect id="Rectangle" fill="#BABABA" x="64.0315457" y="62.214511" width="53.669151" height="1.09148265"></rect>
            <g id="wifi-connection-signal-symbol" transform="translate(35.835962, 3.274448)" fill="#535353">
                <g id="Capa_1">
                    <g id="Wi-Fi">
                        <path d="M36.4250433,33.5686283 C32.7527153,33.5686283 29.7723562,36.0750408 29.7723562,39.163383 C29.7723562,42.2517253 32.7528343,44.7581377 36.4250433,44.7581377 C40.0972524,44.7581377 43.0777305,42.2517253 43.0777305,39.163383 C43.0777305,36.0750408 40.0972524,33.5686283 36.4250433,33.5686283 Z M72.070076,14.007459 C63.1732809,5.10432395 50.180501,0 36.4250433,0 C22.6695857,0 9.67894843,5.10432395 0.779891692,14.007459 C-0.402157499,15.1898386 -0.22026715,16.9540478 1.18795459,17.9480235 C1.81100046,18.3880998 2.56725006,18.604534 3.32338062,18.604534 C4.27247208,18.604534 5.21501644,18.2650666 5.87353569,17.6067542 C13.5019788,9.97369364 24.6385964,5.59485481 36.4249243,5.59485481 C48.2112523,5.59485481 59.3478698,9.97369364 66.9761939,17.6049523 C67.6348322,18.2632647 68.5772575,18.6027321 69.526468,18.6027321 C70.2827176,18.6027321 71.0411099,18.3881999 71.6641557,17.9462216 C73.0701158,16.9539477 73.2521251,15.1879365 72.070076,14.007459 Z M36.4250433,11.1895094 C26.5990362,11.1895094 17.3207238,14.835355 10.9652751,21.1929352 C9.78334492,22.3753148 9.96511623,24.139524 11.373338,25.1334997 C11.9963838,25.573576 12.7547761,25.7900102 13.5110257,25.7900102 C14.4601172,25.7900102 15.4026615,25.4505428 16.0590381,24.7922304 C21.1438733,19.7029227 28.568285,16.7842641 36.4251624,16.7842641 C44.2820398,16.7842641 51.7063324,19.7029227 56.7934293,24.7922304 C57.4520676,25.4524449 58.3944929,25.7900102 59.3413227,25.7900102 C60.0975723,25.7900102 60.8559646,25.575478 61.4791295,25.1334997 C62.8872322,24.139524 63.0690035,22.3735128 61.8871924,21.1929352 C55.5293628,14.8354551 46.2510504,11.1895094 36.4250433,11.1895094 Z M36.4250433,22.3790188 C30.5263441,22.3790188 24.9579758,24.5665862 21.1482777,28.3803135 C19.9662285,29.5626931 20.1481188,31.3269023 21.5563406,32.320878 C22.1793865,32.7609542 22.9377787,32.9772884 23.6940283,32.9772884 C24.6431198,32.9772884 25.5856642,32.6379211 26.2420407,31.9796087 C28.7856487,29.4339537 32.4977355,27.9736734 36.4250433,27.9736734 C40.3523512,27.9736734 44.064557,29.4339537 46.608046,31.9796087 C47.2666842,32.6398232 48.2091096,32.9772884 49.1560583,32.9772884 C49.9123079,32.9772884 50.6707002,32.7628563 51.2937461,32.320878 C52.7019678,31.3268022 52.8837391,29.5625929 51.701809,28.3803135 C47.8919918,24.5665862 42.3236236,22.3790188 36.4250433,22.3790188 Z" id="Shape"></path>
                    </g>
                </g>
            </g>
        </g>
        <g id="Group" transform="translate(45.000000, 390.000000)" stroke="#535353" stroke-linecap="square">
            <path d="M0.5,16.5 L46.5,16.5" id="Line" stroke-width="7"></path>
            <path d="M0.5,45.5 L46.5,45.5" id="Line" stroke-width="7"></path>
            <path d="M123.5,45.5 L169.5,45.5" id="Line" stroke-width="7"></path>
            <path d="M238.5,17.5 L297.5,17.5" id="Line" stroke-width="7"></path>
            <polyline id="Line" stroke-width="6" points="275.5 17.5 276.311484 30.7007142 286.5 35.5"></polyline>
            <path d="M375.5,17.5 L409.5,17.5" id="Line" stroke-width="7"></path>
            <path d="M370.5,11.5 L366.5,36.5" id="Line" stroke-width="7"></path>
            <path d="M373.5,90.5 L395.5,90.5" id="Line" stroke-width="7"></path>
            <polyline id="Line" stroke-width="6" points="386.12501 86.4090829 388.31127 73.9433324 400.289949 73.9433324"></polyline>
            <path d="M400.5,90.5 L409.5,17.5" id="Line" stroke-width="7"></path>
            <path d="M253.5,89.5 L296.5,21.5" id="Line" stroke-width="7"></path>
            <path d="M24.5,7.5 L24.5,95.5" id="Line" stroke-width="7"></path>
            <path d="M47.5,0.603967859 L47.5,21.6109812" id="Line" stroke-width="7"></path>
            <path d="M58.5,0.603967859 L58.5,21.6109812" id="Line" stroke-width="7"></path>
        </g>
    </g>
</svg>
